<?xml version="1.0" standalone="no"?>
<!DOCTYPE svg PUBLIC "-//W3C//DTD SVG 20010904//EN"
 "http://www.w3.org/TR/2001/REC-SVG-20010904/DTD/svg10.dtd">
<svg version="1.0" xmlns="http://www.w3.org/2000/svg"
 width="215.000000pt" height="378.000000pt" viewBox="0 0 215.000000 378.000000"
 preserveAspectRatio="xMidYMid meet">
<metadata>
Created by potrace 1.16, written by Peter Selinger 2001-2019
</metadata>
<g transform="translate(0.000000,378.000000) scale(0.100000,-0.100000)"
fill="#000000" stroke="none">
<path d="M855 3754 c-76 -31 -119 -74 -147 -143 -19 -49 -22 -73 -20 -198 1
-126 4 -147 26 -195 13 -29 44 -73 70 -98 26 -25 46 -53 46 -65 0 -12 -16 -37
-36 -56 -31 -29 -35 -39 -32 -74 2 -22 -3 -54 -10 -71 -13 -32 -15 -32 -135
-50 l-121 -19 -99 -178 c-96 -173 -103 -181 -249 -338 l-151 -160 6 -62 c3
-34 11 -104 18 -154 l12 -92 151 -3 151 -3 6 -37 c7 -45 20 -62 59 -78 17 -7
30 -14 30 -17 0 -2 -11 -207 -25 -455 -24 -428 -25 -453 -9 -497 10 -25 30
-60 46 -77 38 -41 42 -60 69 -365 l23 -256 270 -6 c148 -4 402 -7 563 -7 l295
0 -2 98 c-1 53 -1 203 -1 332 l2 235 28 33 28 33 113 -45 113 -46 61 16 c103
27 145 56 146 102 0 34 -137 816 -156 886 -8 33 -28 75 -42 94 l-27 35 -6 301
c-7 348 -26 524 -72 673 -11 36 -27 53 -120 123 -60 45 -170 119 -245 164 -90
54 -138 89 -140 102 -2 10 -10 24 -19 31 -8 6 -17 29 -20 50 -4 30 -1 42 16
57 18 16 21 31 21 95 0 64 -3 79 -20 94 -13 10 -20 29 -20 50 0 53 -29 137
-62 178 -68 84 -257 115 -383 63z m433 -675 c-23 -22 -54 -49 -67 -60 -16 -13
-37 -59 -67 -150 -88 -262 -99 -357 -59 -504 15 -55 36 -117 46 -137 11 -21
19 -41 19 -45 0 -4 -46 -6 -101 -5 -72 3 -99 1 -95 -7 4 -6 19 -11 34 -11 15
0 40 -7 56 -15 15 -8 34 -15 41 -15 7 0 25 -6 40 -14 l28 -15 -58 -36 c-48
-31 -61 -35 -79 -27 -68 34 -95 41 -107 26 -6 -8 -18 -14 -26 -14 -8 0 -28 -9
-44 -21 -36 -25 -45 -20 -52 32 -8 63 7 87 54 85 24 0 45 6 56 17 16 16 16 17
-14 17 -18 0 -35 5 -38 10 -4 7 -14 6 -28 -2 -29 -15 -44 -36 -51 -71 -5 -26
-49 -93 -71 -109 -5 -4 -25 -8 -44 -8 l-34 0 6 41 c6 49 54 130 83 143 18 8
22 22 28 90 8 93 36 247 77 426 29 122 29 125 10 140 -23 18 -51 72 -51 97 0
11 18 36 40 58 35 34 40 36 46 19 3 -10 10 -30 14 -44 5 -14 11 -40 14 -59 9
-49 23 -61 71 -61 41 0 45 3 74 49 16 27 38 59 48 71 26 31 178 140 196 140 8
0 21 7 28 16 8 10 15 12 17 5 2 -6 -16 -29 -40 -52z m-517 -1459 c10 -27 23
-44 31 -42 7 2 45 13 83 24 39 11 120 24 180 28 61 5 149 18 197 28 99 21 91
26 103 -58 17 -122 79 -289 147 -395 14 -22 32 -54 41 -71 l16 -31 -189 -1
c-105 0 -205 -5 -223 -11 -17 -5 -72 -16 -122 -25 -104 -17 -251 -9 -300 16
-16 9 -43 16 -58 16 -15 0 -35 6 -45 15 -9 8 -28 18 -42 22 -38 11 -60 35 -60
65 0 33 72 312 94 364 8 20 32 57 52 82 33 40 39 43 57 31 11 -7 28 -33 38
-57z"/>
</g>
</svg>
