<?xml version="1.0" standalone="no"?>
<!DOCTYPE svg PUBLIC "-//W3C//DTD SVG 20010904//EN"
 "http://www.w3.org/TR/2001/REC-SVG-20010904/DTD/svg10.dtd">
<svg version="1.0" xmlns="http://www.w3.org/2000/svg"
 width="1280.000000pt" height="720.000000pt" viewBox="0 0 1280.000000 720.000000"
 preserveAspectRatio="xMidYMid meet">
<metadata>
Created by potrace 1.16, written by Peter Selinger 2001-2019
</metadata>
<g transform="translate(0.000000,720.000000) scale(0.100000,-0.100000)"
fill="#000000" stroke="none">
<path d="M0 4935 l0 -2265 39 0 c43 0 111 25 111 40 0 6 14 10 30 10 17 0 30
-4 30 -10 0 -5 5 -10 10 -10 6 0 10 6 10 14 0 10 16 13 59 14 33 0 65 3 70 7
6 3 21 3 32 0 17 -6 19 -9 8 -16 -11 -7 -11 -9 3 -9 9 0 19 4 22 9 7 11 56 8
80 -5 14 -9 26 -7 50 5 38 19 98 24 142 12 18 -5 37 -5 45 0 10 6 7 9 -11 10
-14 0 -19 3 -12 6 10 4 9 8 -3 17 -12 9 16 11 132 11 81 0 177 3 213 7 36 3
73 3 82 0 10 -4 52 -4 95 -1 43 3 82 2 87 -2 5 -4 20 -3 33 2 18 7 30 6 41 -3
10 -8 13 -8 9 -2 -4 8 1 12 16 12 42 -1 551 12 737 18 332 11 480 12 486 3 3
-5 0 -9 -7 -9 -7 0 -9 -3 -6 -6 4 -4 13 -2 20 5 10 7 106 13 298 16 156 3 310
7 342 8 43 2 56 -1 53 -10 -4 -9 4 -13 22 -12 17 1 20 3 10 6 -50 13 -2 21
137 22 85 1 185 4 222 6 38 3 158 7 268 10 110 3 317 10 460 15 329 12 318 13
309 -2 -5 -8 -2 -9 12 -3 19 9 198 16 659 29 l230 6 19 -40 c19 -39 19 -44 4
-102 -17 -62 -14 -79 20 -117 7 -7 11 -23 8 -35 -3 -12 2 -30 10 -40 8 -11 14
-36 14 -57 0 -20 7 -42 15 -49 20 -16 19 -36 -1 -44 -13 -5 -15 -18 -12 -65 2
-39 -2 -64 -11 -75 -8 -10 -9 -16 -3 -16 6 0 9 -7 6 -15 -4 -8 -10 -12 -15 -9
-5 3 -9 -9 -9 -25 0 -18 5 -31 13 -31 7 -1 4 -6 -6 -15 -14 -10 -19 -26 -19
-64 1 -28 4 -56 7 -61 10 -16 33 -11 38 8 3 9 6 1 7 -18 4 -45 4 -52 -4 -70
-5 -12 0 -16 21 -15 23 0 29 -5 31 -27 2 -16 9 -28 15 -28 7 0 6 -4 -3 -10
-12 -8 -9 -10 12 -10 14 0 28 -5 30 -10 2 -6 13 -12 26 -15 30 -5 43 -15 37
-25 -3 -5 -1 -11 4 -15 6 -3 8 -56 6 -125 -2 -83 0 -124 8 -133 7 -7 21 -30
32 -52 11 -22 34 -60 51 -85 17 -25 40 -61 50 -80 34 -61 133 -136 216 -161
130 -41 459 -47 643 -12 75 14 96 23 271 117 41 22 164 128 164 141 0 7 3 15
8 17 4 2 20 20 36 41 25 35 28 45 24 98 -5 63 -4 65 15 49 28 -23 90 -61 94
-57 7 8 -45 55 -64 59 -16 3 -18 13 -15 74 3 58 -1 79 -19 113 -19 37 -21 52
-15 119 8 98 36 243 49 260 6 7 11 35 11 62 0 28 3 50 6 50 8 0 27 56 35 100
8 45 22 63 62 79 29 12 31 16 26 48 -5 28 -2 38 12 45 14 8 15 12 4 19 -22 13
-7 18 69 23 64 4 78 9 132 46 32 24 62 51 65 61 4 11 15 24 26 30 11 5 17 14
14 18 -3 5 2 22 10 37 8 16 15 39 15 51 0 12 4 32 9 45 5 13 9 28 11 33 4 21
34 24 246 25 120 0 327 5 459 10 292 12 851 18 827 8 -15 -6 -14 -7 4 -7 11
-1 24 3 30 8 8 8 185 24 239 22 24 -1 96 19 109 31 6 5 6 8 -1 8 -13 0 -15
107 -2 116 5 3 9 13 8 22 0 14 -2 14 -8 -2 -10 -26 -19 -10 -26 45 -6 41 -5
43 9 25 15 -19 16 -18 16 21 0 41 -14 65 -23 41 -3 -7 -6 -3 -6 10 -1 13 3 20
9 17 11 -7 13 8 14 140 1 67 -3 99 -15 125 -12 23 -18 59 -18 105 0 39 -3 99
-6 135 -4 36 -8 94 -10 130 -5 94 -34 412 -40 430 -3 8 -7 60 -9 114 -3 55 -9
102 -13 105 -10 7 -9 129 1 152 5 11 1 18 -13 22 -19 5 -21 13 -22 89 -1 45
-1 113 0 151 1 37 -4 77 -10 89 -7 12 -16 58 -20 102 -4 43 -14 101 -20 128
-14 53 -8 68 30 71 11 1 21 6 21 12 0 5 4 16 9 23 14 23 70 -14 175 -115 94
-91 148 -164 125 -172 -6 -2 -15 1 -20 6 -5 5 -34 6 -63 3 -30 -3 -64 -2 -76
2 -11 4 -41 5 -65 1 -35 -4 -45 -10 -45 -24 0 -11 -5 -19 -11 -19 -5 0 -7 -5
-3 -11 4 -8 82 -9 273 -3 243 7 371 9 656 7 55 -1 116 -1 135 -1 317 -2 535 0
620 5 138 8 201 8 405 0 95 -4 183 -3 200 2 17 5 25 10 18 10 -6 1 -13 11 -15
24 -3 21 -7 22 -106 22 -56 0 -102 3 -102 6 0 3 -13 4 -30 1 -18 -3 -30 0 -30
7 0 13 15 27 90 84 30 23 68 54 84 70 17 15 39 30 49 33 16 5 18 14 14 57 -2
29 -10 72 -17 97 -6 25 -13 64 -14 88 l-3 42 22 -22 c15 -16 22 -33 20 -55 -1
-18 2 -33 7 -33 4 0 8 -11 8 -24 0 -14 4 -27 8 -30 5 -3 9 -25 10 -50 2 -35
-2 -45 -15 -49 -14 -4 -13 -5 4 -6 26 -1 53 -36 53 -68 0 -28 -8 -29 -27 -5
-8 9 -12 11 -8 5 3 -7 2 -13 -3 -13 -6 0 -13 12 -18 28 -5 19 -8 22 -11 10 -5
-22 15 -59 30 -56 20 3 57 -13 57 -25 1 -15 9 -96 13 -122 2 -11 6 -26 11 -33
4 -7 9 -32 11 -55 2 -23 5 -44 6 -47 1 -3 3 -9 4 -15 9 -34 18 -55 26 -55 13
0 11 -74 -2 -87 -9 -9 -5 -18 13 -36 14 -14 31 -47 37 -73 7 -26 19 -53 27
-58 10 -8 16 -37 19 -96 3 -47 8 -98 11 -115 4 -16 7 -42 6 -57 -1 -16 3 -28
8 -28 6 0 10 -9 10 -20 0 -11 6 -20 13 -20 8 0 7 -4 -3 -10 -9 -6 -11 -13 -5
-17 6 -5 10 -36 10 -70 0 -44 4 -63 13 -63 11 0 18 -68 12 -123 -1 -10 4 -25
10 -32 7 -8 10 -22 6 -30 -3 -8 -1 -15 5 -15 7 0 10 -19 7 -50 -1 -28 1 -50 5
-50 5 0 6 -4 2 -9 -3 -5 -1 -12 3 -15 5 -3 7 -17 4 -31 -2 -15 0 -25 7 -25 6
0 11 -10 11 -22 0 -13 7 -36 15 -51 8 -16 17 -51 21 -78 4 -28 12 -56 18 -62
6 -7 11 -37 10 -67 -1 -30 2 -60 7 -65 4 -6 10 -28 12 -48 2 -21 9 -43 15 -49
14 -14 16 -77 3 -97 -5 -8 -6 -21 -1 -30 4 -9 14 -35 21 -58 7 -24 16 -43 21
-43 4 0 8 -6 8 -14 0 -8 6 -17 13 -19 10 -4 10 -6 0 -6 -7 -1 -13 -6 -13 -12
0 -5 5 -7 12 -3 8 5 9 -8 4 -50 l-6 -58 77 6 c43 3 88 5 101 6 l22 0 0 2100 0
2100 -632 0 c-492 0 -629 -3 -620 -12 7 -7 12 -35 13 -63 1 -82 23 -267 32
-259 4 4 7 1 7 -7 1 -20 17 -134 30 -209 7 -36 14 -76 16 -90 3 -14 6 -43 8
-65 2 -22 10 -80 19 -130 9 -49 19 -115 22 -145 9 -73 62 -430 75 -500 5 -30
17 -104 25 -165 8 -60 17 -124 21 -141 6 -29 4 -32 -22 -37 -16 -4 -425 -9
-910 -12 l-881 -7 -11 89 c-6 48 -16 135 -22 193 -6 58 -15 137 -20 175 -5 39
-12 108 -15 155 -6 83 -9 114 -40 410 -16 156 -19 186 -34 355 -6 61 -17 180
-26 265 -8 85 -15 165 -15 178 l0 23 -455 -2 c-250 0 -457 -4 -460 -9 -2 -4
-36 -10 -75 -14 -61 -6 -70 -10 -70 -27 0 -23 -27 -55 -38 -45 -3 4 0 11 7 16
8 4 11 14 8 22 -6 16 -63 13 -73 -3 -10 -16 -24 -9 -24 11 0 11 -7 20 -15 20
-8 0 -15 7 -15 15 0 18 -36 20 -43 3 -4 -10 -6 -10 -6 0 -1 9 -39 12 -156 12
-154 0 -155 0 -155 -22 0 -17 -3 -19 -9 -10 -6 10 -10 9 -14 -7 -3 -12 -13
-21 -22 -21 -12 0 -15 5 -10 21 5 15 3 20 -6 17 -9 -3 -13 -17 -11 -41 2 -22
-1 -37 -7 -37 -6 0 -11 10 -11 22 l0 21 -25 -23 -25 -24 -20 22 c-24 26 -21
25 -54 8 -15 -7 -41 -12 -58 -10 -18 2 -35 -1 -40 -8 -13 -21 -9 -28 12 -28
11 0 20 -4 20 -10 0 -5 7 -7 15 -4 8 4 15 1 15 -4 0 -6 -8 -13 -17 -15 -10 -3
-1 -5 20 -6 21 0 36 3 33 8 -3 5 7 11 22 13 15 3 34 8 44 12 11 5 18 1 23 -13
3 -12 13 -21 21 -21 9 0 14 -10 14 -27 -1 -25 -2 -26 -14 -10 -15 19 -34 22
-56 7 -13 -9 -11 -13 10 -30 14 -11 19 -20 13 -20 -17 0 -17 -35 0 -48 7 -6
30 -12 52 -14 23 -2 39 -8 38 -14 -1 -7 6 -10 17 -7 11 3 20 14 20 24 0 18 1
18 19 2 11 -9 18 -20 15 -25 -3 -4 2 -5 10 -2 10 4 16 1 16 -9 0 -8 7 -18 16
-21 13 -5 15 -15 10 -49 -10 -81 -18 -117 -27 -123 -14 -8 -11 -34 4 -34 7 0
21 -6 31 -13 15 -11 16 -18 8 -33 -5 -11 -13 -55 -15 -99 -3 -44 -8 -87 -10
-95 -2 -8 -2 -11 1 -7 2 5 10 0 18 -11 13 -19 12 -65 -3 -204 -4 -41 -2 -47
17 -53 21 -7 21 -10 15 -93 -4 -48 -11 -91 -15 -97 -5 -5 -10 -23 -12 -40 -2
-25 1 -31 21 -33 22 -4 23 -6 17 -65 -20 -205 -20 -199 -2 -213 16 -11 16 -19
6 -68 -6 -31 -17 -62 -25 -69 -8 -9 -10 -19 -5 -28 6 -9 3 -20 -8 -32 -16 -18
-16 -20 2 -33 11 -7 18 -16 15 -18 -2 -2 -81 -7 -174 -10 -94 -3 -203 -8 -242
-12 -51 -5 -73 -4 -73 4 0 8 -7 9 -23 3 -12 -5 -105 -12 -207 -15 -102 -4
-213 -9 -248 -11 -34 -3 -149 -7 -255 -10 -106 -2 -232 -7 -282 -10 -49 -2
-160 -7 -245 -10 -198 -6 -442 -15 -500 -19 -25 -2 -139 -6 -255 -10 -115 -4
-273 -9 -350 -12 -197 -8 -514 -8 -522 -1 -3 4 1 9 10 13 15 5 15 8 1 21 -19
20 -16 139 4 136 14 -3 16 13 2 22 -14 9 -13 292 1 297 6 2 11 50 12 130 2
125 2 127 30 151 22 18 28 31 25 53 -2 16 -7 28 -13 26 -13 -3 -24 106 -13
136 11 33 10 170 -2 177 -14 9 -12 25 3 20 20 -8 40 90 39 194 -2 80 0 92 13
81 12 -10 15 -7 22 17 4 15 7 45 6 66 0 20 4 37 9 37 6 0 8 7 5 15 -4 8 -1 17
4 21 6 3 9 15 6 25 -4 15 1 19 21 21 45 3 86 -2 92 -11 3 -5 13 -3 24 4 16 12
17 17 5 44 -7 16 -22 32 -32 35 -26 7 -21 93 6 88 10 -2 17 3 17 12 0 11 10
14 40 13 22 -2 40 1 40 6 0 4 19 8 43 7 74 -1 142 11 154 27 7 8 17 12 24 7 7
-4 18 0 25 11 11 15 21 17 61 10 77 -13 143 -12 143 2 0 19 21 27 32 12 8 -11
9 -10 4 4 -7 21 2 22 26 0 17 -15 19 -15 36 0 10 10 26 17 35 17 9 0 17 4 17
9 0 11 -67 19 -82 10 -7 -4 -20 -3 -29 2 -12 6 -19 5 -22 -4 -3 -9 -7 -9 -19
0 -12 10 -618 13 -2911 13 l-2897 0 0 -2265z m9097 2165 c-1 -11 -4 -20 -8
-20 -4 0 -9 -9 -12 -20 -3 -13 0 -20 9 -20 8 0 14 7 14 16 0 10 6 13 18 10 9
-3 31 -2 47 3 40 11 60 4 44 -15 -9 -11 -7 -14 9 -14 11 0 22 -8 25 -20 4 -16
0 -20 -18 -20 -27 0 -58 -31 -37 -37 6 -3 12 -13 12 -23 0 -12 11 -20 33 -25
17 -4 36 -7 41 -6 4 1 19 -5 32 -14 20 -13 24 -24 24 -63 -1 -26 -5 -66 -9
-90 -8 -39 -7 -43 18 -55 l26 -12 -3 -122 c-2 -78 1 -129 8 -143 17 -33 21
-58 23 -147 1 -50 7 -87 15 -95 7 -7 12 -41 12 -90 0 -43 4 -78 9 -78 5 0 12
-11 15 -25 4 -14 11 -23 16 -20 11 7 21 -9 25 -38 6 -52 18 -98 26 -103 5 -3
10 -17 10 -32 1 -23 3 -22 8 8 4 19 3 43 -1 53 -7 13 -4 17 8 17 10 0 14 -3
11 -6 -3 -4 -2 -15 3 -25 14 -25 1 -109 -16 -109 -8 0 -14 -4 -14 -10 0 -5 -5
-9 -11 -7 -6 1 -15 -8 -20 -20 -7 -19 -4 -26 17 -40 22 -14 25 -22 21 -49 -3
-20 0 -39 9 -51 13 -16 14 -14 12 24 -1 23 1 45 5 49 4 4 7 -4 8 -17 0 -13 3
-35 5 -49 2 -14 7 -58 10 -97 6 -62 4 -73 -9 -73 -15 0 -27 20 -27 43 0 7 4 6
10 -3 6 -9 10 -10 10 -3 0 19 -20 26 -26 9 -3 -9 -11 -13 -18 -10 -6 3 -3 -1
7 -9 9 -8 17 -17 17 -19 0 -11 -87 -18 -255 -23 -93 -3 -204 -7 -245 -10 -65
-3 -319 -7 -403 -5 -36 0 -26 20 11 21 17 1 21 3 10 6 -19 5 -24 19 -9 25 5 2
3 9 -5 16 -12 11 -14 10 -15 -5 -3 -39 -17 46 -18 108 -1 51 3 68 14 73 8 3
15 11 15 18 0 9 -3 9 -9 -1 -8 -12 -11 -10 -15 10 -28 127 -35 232 -22 307 5
25 4 48 -2 55 -5 7 -10 28 -11 47 -1 19 -3 71 -5 115 -2 44 -7 145 -10 225 -3
80 -9 161 -12 180 -4 19 -8 87 -9 151 -2 64 -6 126 -10 138 -3 12 -2 21 4 21
5 0 12 -15 14 -32 4 -33 4 -33 5 4 2 39 26 62 59 56 9 -2 18 2 20 9 3 7 -4 9
-19 5 -20 -5 -21 -3 -10 10 14 18 6 48 -13 48 -16 0 -19 96 -4 106 5 3 9 1 9
-4 0 -15 54 -22 62 -9 4 7 20 13 35 14 73 6 95 11 101 21 8 12 52 -20 52 -38
0 -7 8 -10 20 -7 10 3 24 -1 30 -8 11 -14 50 -9 50 6 0 5 7 6 15 3 17 -7 21
11 5 21 -5 3 -10 18 -10 33 1 24 2 25 11 9 8 -14 18 -17 42 -11 18 3 35 12 39
18 5 6 8 2 8 -11 0 -13 5 -23 10 -23 10 0 14 14 11 39 -2 7 2 10 8 7 5 -4 9
-15 8 -26z m-4467 -475 c-10 -12 -16 -13 -27 -4 -15 13 -28 6 -18 -10 3 -6 18
-11 32 -11 21 0 25 -4 21 -24 -4 -17 -1 -23 9 -19 7 3 13 10 13 15 0 6 13 23
30 38 32 30 108 45 127 25 23 -25 24 -37 6 -57 -10 -12 -13 -18 -6 -14 9 5 11
-30 8 -147 -3 -163 -15 -231 -42 -241 -14 -6 -15 -8 0 -19 19 -15 33 -77 17
-77 -7 0 -9 -8 -5 -20 3 -11 2 -20 -3 -20 -5 0 -12 -12 -15 -27 -5 -21 0 -33
15 -46 21 -17 21 -20 8 -110 -7 -51 -12 -105 -11 -122 5 -70 0 -190 -8 -199
-5 -6 -12 -34 -16 -63 -4 -30 -13 -54 -21 -57 -8 -3 -14 -14 -14 -25 0 -14 -5
-18 -22 -15 -17 3 -16 1 4 -7 24 -9 26 -14 17 -30 -6 -11 -9 -30 -7 -42 2 -12
-4 -28 -12 -34 -13 -11 -13 -14 0 -24 12 -9 11 -10 -7 -6 -32 7 -29 -9 2 -17
14 -4 23 -11 20 -16 -6 -10 -140 -4 -158 7 -6 3 -7 1 -3 -5 4 -7 -17 -11 -61
-14 -38 -1 -69 0 -71 4 -2 5 -11 4 -21 -1 -21 -12 -82 -12 -97 0 -12 10 -56 0
-49 -11 3 -5 -39 -9 -92 -9 -54 0 -115 -2 -136 -3 -42 -4 -57 7 -37 25 8 8 11
8 7 1 -9 -15 53 -16 72 -1 12 9 13 9 7 0 -4 -7 -2 -13 3 -13 6 0 11 4 11 9 0
6 15 11 33 13 21 2 9 6 -39 12 -46 5 -85 4 -113 -4 -41 -11 -42 -11 -21 -28
20 -16 18 -17 -55 -19 -48 -2 -74 1 -70 7 3 6 22 10 41 10 26 0 33 3 28 13 -6
9 -5 9 8 -1 13 -10 15 -9 14 10 -1 20 -7 23 -51 25 -27 2 -63 6 -79 9 -30 7
-68 38 -58 48 3 3 0 6 -6 6 -16 0 -15 27 1 33 9 3 9 9 1 23 -9 15 -21 18 -60
15 -27 -1 -55 -8 -61 -13 -9 -7 -13 -7 -13 2 0 9 -21 11 -79 9 -44 -2 -77 0
-74 4 6 10 -82 -1 -119 -15 -20 -7 -32 -6 -50 6 -14 9 -27 14 -30 10 -8 -7
-122 -17 -181 -16 -27 1 -61 -5 -77 -13 -34 -18 -44 -19 -35 -5 4 6 -10 10
-34 10 -48 0 -57 -2 -53 -12 1 -5 -7 -8 -19 -8 -11 0 -17 5 -14 10 3 6 -1 10
-10 10 -9 0 -13 -4 -10 -10 3 -5 1 -10 -4 -10 -6 0 -11 4 -11 8 0 5 -19 6 -42
3 -24 -4 -63 -5 -88 -4 -25 2 -94 2 -155 2 -119 -2 -312 -1 -440 1 -44 1 -84
1 -90 -1 -33 -9 -152 -2 -164 9 -7 7 -23 12 -35 11 -11 0 -34 -1 -50 0 l-29 1
21 19 c12 10 22 25 22 32 0 8 6 3 13 -10 16 -32 37 -39 37 -11 0 28 19 62 31
55 5 -4 9 -1 9 4 0 15 38 13 75 -3 26 -11 36 -10 73 6 34 15 46 17 58 8 11
-10 17 -10 28 -1 8 6 19 10 26 9 7 -2 19 11 28 27 9 17 29 41 45 54 l28 24 6
-22 c7 -29 30 -26 36 5 8 43 -2 66 -27 58 -25 -8 -16 4 16 20 30 15 33 32 6
40 -21 6 -21 7 -6 17 12 7 24 7 37 -1 31 -16 51 -12 60 14 5 13 19 26 30 29
12 3 19 2 16 -2 -2 -5 2 -17 10 -27 9 -12 14 -14 15 -6 0 7 4 11 9 8 5 -3 11
4 14 16 4 12 9 19 13 15 4 -4 13 2 21 13 11 15 26 20 59 20 24 0 44 4 44 9 0
16 37 19 76 5 49 -17 74 -18 75 -1 0 10 2 10 6 0 2 -7 20 -13 39 -13 28 0 34
4 34 20 0 18 3 19 20 10 11 -6 18 -15 15 -21 -4 -5 -2 -9 4 -9 5 0 12 4 15 9
4 5 26 19 51 31 25 12 50 31 56 41 11 22 89 28 89 7 0 -7 7 -3 15 9 16 23 45
21 45 -3 0 -8 10 -14 25 -14 15 0 25 -6 25 -14 0 -7 11 -16 25 -18 21 -4 25
-1 25 19 0 15 5 23 13 20 7 -2 11 -15 9 -30 -2 -15 -1 -27 2 -27 14 0 56 24
56 33 0 5 8 16 18 23 14 11 14 14 2 14 -18 1 -63 87 -54 102 5 7 11 5 19 -6
11 -15 14 -14 38 4 26 21 47 21 121 4 19 -4 27 -3 23 3 -8 12 27 56 37 46 13
-14 51 -9 70 8 14 14 23 16 32 8 9 -7 35 -7 86 0 135 20 153 22 207 25 31 2
57 8 59 14 2 8 30 12 78 12 54 0 74 4 74 13 0 9 -11 12 -37 9 -37 -4 -38 -4
-20 15 9 11 17 25 17 31 0 14 -17 16 -22 2 -2 -6 -25 -5 -63 1 -33 5 -69 10
-80 9 -11 0 -31 -1 -45 -1 -14 0 -33 -5 -43 -10 -25 -14 -53 -3 -62 24 -6 19
-8 19 -12 5 -4 -18 -33 -26 -33 -10 0 10 -82 8 -98 -2 -7 -4 -12 -2 -12 3 0 7
-7 7 -20 -1 -17 -11 -22 -10 -30 2 -14 21 -12 30 5 30 8 0 24 11 37 25 13 13
32 26 43 27 11 2 21 7 22 12 2 15 36 31 40 19 4 -11 70 -6 88 6 6 4 16 6 23 5
6 -1 17 -2 22 -3 6 0 10 -12 10 -26 0 -14 4 -25 10 -25 5 0 7 7 4 15 -9 24 23
65 50 65 14 0 31 3 40 6 18 7 22 39 6 49 -5 3 -10 15 -10 26 0 10 -4 19 -9 19
-5 0 -23 3 -40 6 -26 5 -31 3 -31 -12 0 -17 -9 -19 -73 -21 -44 -2 -67 0 -58
6 7 5 21 6 32 4 11 -3 28 5 44 21 14 14 31 23 39 20 8 -3 16 3 19 16 5 19 12
21 64 19 40 -1 57 2 56 9 -9 41 -5 72 10 70 6 -2 15 -7 19 -13 12 -16 9 -63
-4 -67 -9 -3 -7 -15 5 -46 10 -25 13 -43 7 -47 -15 -9 -12 -32 6 -39 9 -3 12
-2 9 5 -4 6 -1 10 6 8 8 -1 23 -1 33 0 18 1 18 2 1 21 -10 11 -14 20 -9 20 5
0 1 5 -9 11 -12 7 -16 17 -12 30 4 13 2 19 -9 19 -9 0 -16 5 -16 10 0 6 5 10
10 10 6 0 10 7 10 15 0 9 10 16 28 17 15 0 41 2 57 3 17 1 37 -2 46 -6 28 -14
89 1 89 21 0 30 11 50 29 50 14 0 14 -2 1 -10 -12 -8 -11 -10 7 -10 12 0 24 6
26 13 3 6 6 2 6 -11 1 -21 3 -22 16 -8 8 8 15 19 15 25 0 6 7 11 15 11 8 0 15
-7 15 -15 0 -8 8 -15 18 -15 10 0 22 -4 28 -10 15 -15 74 10 74 32 0 11 7 18
19 18 30 0 51 11 51 25 0 9 14 15 38 17 46 4 48 2 32 -17z m5040 -481 c0 -21
-4 -33 -10 -29 -11 7 8 -43 22 -59 4 -6 8 19 9 55 1 94 19 41 26 -78 3 -51 10
-93 16 -93 5 0 4 -6 -2 -14 -7 -8 -10 -25 -7 -38 8 -34 20 -184 20 -253 0 -33
4 -62 8 -65 9 -7 18 -77 11 -84 -3 -3 -12 2 -19 12 -12 16 -13 16 -19 0 -4
-10 -13 -18 -20 -18 -25 0 -37 95 -51 405 -1 39 -7 108 -13 155 -10 94 -6 140
15 140 9 0 14 -12 14 -36z m-6747 -1013 c10 0 16 -5 13 -10 -4 -5 -30 -9 -59
-8 -28 0 -97 -3 -152 -6 -438 -30 -627 -36 -661 -22 -22 9 -10 11 71 12 70 0
100 4 106 14 5 8 9 9 9 3 0 -7 9 -14 20 -17 11 -3 18 -1 15 3 -3 5 16 9 42 9
27 0 63 2 80 4 18 2 34 -2 36 -7 3 -8 8 -8 18 0 8 6 62 12 126 13 61 1 123 5
137 9 23 6 143 8 199 3z m3625 -2396 c27 -4 40 -10 36 -17 -5 -8 -1 -9 10 -5
21 8 106 -12 106 -25 0 -5 7 -5 18 0 22 11 67 0 66 -16 -4 -46 8 -44 -201 -40
-191 3 -200 4 -257 31 -32 15 -69 27 -82 27 -25 0 -36 11 -26 26 11 17 39 23
50 12 8 -8 15 -8 26 1 9 7 27 10 43 7 15 -3 34 -2 42 3 14 9 89 7 169 -4z"/>
<path d="M10382 7184 c-7 -8 -11 -18 -8 -23 3 -4 -2 -33 -11 -65 l-16 -56 -41
0 c-23 0 -48 -4 -56 -10 -11 -7 -9 -11 13 -19 16 -6 33 -11 38 -11 5 0 9 -14
9 -32 0 -23 -8 -39 -27 -55 -16 -12 -23 -22 -17 -23 19 0 94 79 94 100 0 11 4
20 8 20 17 0 21 -13 11 -31 -7 -14 -6 -21 4 -25 9 -3 12 -14 9 -29 -2 -13 3
-63 11 -112 9 -48 20 -122 26 -163 6 -41 14 -85 17 -97 5 -18 2 -23 -13 -23
-10 0 -24 5 -30 11 -9 9 -16 7 -29 -5 -10 -11 -25 -15 -38 -12 -25 6 -115 -34
-116 -51 0 -7 6 -13 14 -13 41 0 166 -73 166 -97 0 -7 3 -13 8 -13 4 0 22 -26
40 -58 25 -43 53 -72 108 -112 41 -30 72 -60 70 -67 -3 -6 2 -14 10 -17 24 -9
27 -7 15 8 -8 10 -9 16 -1 21 5 3 10 19 10 36 0 33 7 37 26 12 12 -17 15 -16
44 15 24 24 41 32 67 32 25 0 34 -4 30 -13 -3 -8 19 -1 55 16 33 15 65 26 71
24 14 -4 16 -49 2 -59 -17 -13 -25 -9 -18 8 5 14 3 15 -16 5 -12 -7 -26 -9
-31 -6 -6 3 -10 -3 -10 -13 0 -26 26 -35 53 -20 12 7 26 12 32 13 16 0 25 83
13 113 -6 15 -13 38 -15 51 -2 14 -8 32 -14 42 -5 10 -9 35 -9 56 0 34 -3 39
-26 41 -23 2 -26 -1 -22 -23 5 -23 3 -25 -36 -25 -23 0 -47 -5 -54 -12 -8 -8
-15 -8 -26 1 -16 13 -91 17 -125 6 -15 -5 -21 -2 -21 9 0 13 -4 12 -20 -4 -11
-11 -28 -20 -37 -20 -9 0 -33 -5 -52 -11 -20 -6 -49 -15 -66 -20 -33 -9 -36
-12 35 41 l25 19 -30 -4 c-16 -3 -45 -8 -64 -11 -23 -5 -45 -1 -65 9 -17 8
-40 18 -50 21 -25 8 -12 20 39 37 54 17 224 19 218 2 -3 -8 3 -13 16 -13 23 0
27 10 9 28 -20 20 17 25 74 9 29 -9 74 -19 100 -22 26 -4 46 -10 44 -14 -9
-15 11 -30 32 -24 24 6 30 23 8 23 -7 0 -19 7 -26 15 -10 12 -8 16 15 25 14 5
42 10 61 10 35 0 110 36 118 56 3 7 -5 9 -20 6 -13 -2 -24 -8 -24 -12 0 -8
-65 -20 -128 -23 -27 -1 -42 2 -42 10 0 29 23 67 67 108 28 27 41 45 32 45 -9
0 -26 -11 -39 -25 -13 -14 -64 -53 -113 -86 -90 -61 -108 -66 -159 -44 -14 5
-18 2 -18 -15 0 -17 -4 -20 -17 -15 -10 4 -30 10 -45 12 -32 6 -47 43 -17 43
12 0 19 7 19 18 0 10 5 23 12 30 9 9 7 12 -9 12 -23 0 -48 24 -39 38 3 6 -1
15 -9 22 -8 7 -15 21 -15 31 0 11 -5 19 -11 19 -6 0 -9 7 -6 15 4 8 2 17 -2
20 -5 2 -9 56 -10 120 -2 92 1 119 15 140 16 25 44 34 44 15 0 -5 11 -10 24
-10 13 0 40 -16 61 -36 24 -23 43 -33 54 -29 36 14 71 17 71 6 0 -6 -6 -11
-12 -11 -10 0 -9 -3 1 -9 18 -11 6 -61 -14 -61 -19 0 -19 -24 0 -40 11 -9 18
-9 35 3 18 13 19 16 5 27 -14 12 -14 15 0 37 9 13 13 28 10 33 -3 6 0 10 7 10
7 0 22 21 32 48 11 26 27 65 37 87 29 68 30 74 9 72 -10 -1 -21 -10 -24 -22
-3 -11 -13 -25 -23 -31 -17 -10 -18 -8 -15 22 2 19 0 34 -6 34 -13 0 -23 -26
-16 -43 2 -7 -2 -25 -9 -40 l-14 -27 -37 29 c-22 18 -54 31 -83 36 -79 11 -95
16 -89 31 8 20 -84 18 -102 -2z"/>
<path d="M11106 7148 c-11 -82 -34 -93 -84 -42 -13 13 -29 24 -37 24 -8 0 -15
4 -15 9 0 10 -80 6 -110 -4 -8 -3 -31 -29 -50 -56 -19 -28 -40 -56 -47 -63 -6
-7 -13 -22 -15 -32 -2 -14 4 -20 25 -22 17 -2 27 -9 28 -20 0 -11 3 -12 6 -4
6 16 32 15 68 -4 27 -14 56 -19 128 -23 24 -1 27 -4 22 -23 -4 -13 -19 -41
-33 -63 -20 -31 -21 -37 -6 -25 10 8 21 18 24 22 3 4 12 3 20 -2 12 -8 12 -10
-4 -10 -11 0 -17 -3 -13 -6 3 -3 1 -19 -5 -35 -9 -25 -7 -32 8 -44 11 -8 30
-15 44 -15 25 -1 52 -28 64 -65 7 -25 65 -65 92 -65 19 1 19 1 0 15 -15 11
-48 83 -54 115 -9 58 -31 120 -43 120 -14 0 -10 33 6 57 8 12 21 49 29 82 13
54 12 61 -1 61 -25 0 -8 25 20 28 25 3 27 1 27 -36 0 -21 3 -42 6 -45 4 -4 8
-21 9 -38 2 -17 7 -34 12 -38 6 -3 23 -26 38 -51 16 -25 46 -61 68 -81 37 -32
40 -40 40 -85 0 -27 3 -42 5 -34 3 8 9 18 14 21 13 8 -13 106 -34 129 -10 10
-18 24 -18 30 0 5 -10 8 -22 6 -27 -4 -48 10 -48 32 0 13 3 12 14 -4 8 -10 18
-16 22 -12 8 9 -24 48 -40 48 -15 0 -36 48 -36 81 0 15 -6 30 -12 32 -7 3 -1
6 15 6 15 1 27 6 27 11 0 6 -6 9 -12 8 -7 -2 -14 6 -16 18 -2 14 9 31 32 52
20 17 36 37 36 43 0 7 7 21 17 31 15 17 14 18 -44 18 -46 0 -62 -4 -67 -16 -7
-18 -52 -15 -48 4 1 7 -8 12 -22 12 -21 0 -24 -6 -30 -52z m-116 -79 c47 -32
74 -75 68 -106 -5 -25 -21 -26 -46 -3 -12 11 -54 37 -94 59 -65 34 -75 45 -70
74 1 4 23 7 49 7 37 0 58 -7 93 -31z"/>
<path d="M10615 6860 c-3 -5 -28 -12 -55 -16 -28 -4 -50 -10 -50 -14 0 -3 11
-17 25 -30 14 -13 25 -28 25 -34 0 -6 11 -24 25 -39 14 -15 22 -27 17 -27 -12
0 -37 -108 -28 -118 13 -12 33 26 32 60 -1 40 23 62 94 87 64 23 67 26 36 46
-15 10 -26 27 -26 39 0 33 -79 72 -95 46z"/>
<path d="M11014 6204 c8 -14 12 -34 9 -44 -5 -20 -29 -33 -44 -24 -5 3 -9 -2
-9 -12 0 -13 -6 -15 -35 -10 -30 6 -35 4 -35 -12 0 -22 -46 -37 -54 -18 -2 6
-5 -1 -5 -16 -1 -25 2 -27 28 -22 23 5 32 2 40 -14 20 -37 13 -42 -34 -27 -25
7 -52 18 -60 25 -10 8 -19 8 -36 -2 -17 -10 -23 -10 -26 0 -5 13 -53 17 -53 4
0 -11 80 -57 93 -54 34 10 50 10 68 -1 16 -10 25 -9 49 5 17 10 37 15 45 12
10 -4 15 0 15 14 0 14 -8 22 -22 24 -30 4 -32 43 -3 43 11 0 20 -6 20 -14 0
-8 6 -16 12 -18 9 -3 11 4 7 26 -5 26 -3 31 12 31 11 0 30 9 44 20 14 11 31
20 38 20 21 0 14 14 -27 53 -46 44 -55 46 -37 11z"/>
<path d="M11230 5760 c-6 -11 -17 -20 -25 -20 -8 0 -15 -9 -15 -20 0 -13 7
-20 20 -20 27 0 25 -14 -5 -30 -39 -21 -27 -37 22 -31 7 1 10 -4 7 -12 -9 -24
43 -37 145 -37 79 0 100 3 105 15 4 11 -1 15 -18 15 -14 0 -30 10 -40 25 -9
14 -14 25 -10 25 3 0 -4 9 -17 19 -27 22 -38 19 -19 -4 8 -9 9 -15 2 -15 -6 0
-15 6 -19 14 -10 17 -73 32 -74 17 -1 -6 -2 -17 -3 -23 -1 -7 -7 -12 -14 -10
-7 1 -12 -3 -12 -9 0 -5 -4 -8 -9 -5 -14 9 0 46 18 47 10 0 11 2 4 6 -7 2 -13
20 -13 39 0 38 -14 44 -30 14z"/>
<path d="M63 582 l-63 -3 0 -289 0 -290 1264 0 1264 0 43 57 c24 32 60 81 79
109 39 56 89 127 117 162 10 12 34 32 53 44 19 12 37 25 40 29 3 3 21 17 40
30 19 13 61 44 93 68 52 40 56 46 40 55 -12 8 -177 10 -538 7 -651 -6 -1391
-7 -1470 -3 -343 19 -467 24 -667 25 -128 1 -261 1 -295 -1z"/>
</g>
</svg>
