<?xml version="1.0" standalone="no"?>
<!DOCTYPE svg PUBLIC "-//W3C//DTD SVG 20010904//EN"
 "http://www.w3.org/TR/2001/REC-SVG-20010904/DTD/svg10.dtd">
<svg version="1.0" xmlns="http://www.w3.org/2000/svg"
 width="326.000000pt" height="281.000000pt" viewBox="0 0 326.000000 281.000000"
 preserveAspectRatio="xMidYMid meet">
<metadata>
Created by potrace 1.16, written by Peter Selinger 2001-2019
</metadata>
<g transform="translate(0.000000,281.000000) scale(0.100000,-0.100000)"
fill="#000000" stroke="none">
<path d="M752 2767 c-324 -188 -579 -507 -686 -859 -46 -154 -60 -251 -61
-428 0 -254 47 -459 156 -674 77 -152 141 -238 279 -377 217 -219 448 -346
745 -409 120 -26 472 -28 591 -4 207 41 407 128 580 249 110 78 291 265 367
381 170 257 251 522 250 824 0 313 -81 581 -254 841 -117 174 -350 384 -526
473 l-52 26 -658 -1 -658 0 -73 -42z m941 -179 c124 -49 136 -56 194 -116 81
-84 116 -179 45 -124 -42 33 -122 73 -132 67 -6 -4 -5 -14 2 -25 10 -16 9 -25
-5 -50 -17 -27 -17 -32 -3 -46 17 -16 22 -59 8 -68 -5 -3 -41 -2 -81 1 -64 5
-72 8 -68 25 4 15 -1 18 -34 18 -32 0 -39 -4 -39 -19 0 -11 -4 -22 -9 -25 -9
-6 0 -74 12 -93 4 -6 32 -14 62 -18 30 -3 81 -17 112 -29 60 -24 136 -66 118
-66 -5 0 -24 9 -42 19 -57 36 -164 61 -254 61 -128 0 -230 -29 -409 -117 -85
-41 -170 -80 -189 -85 -26 -7 -31 -12 -20 -19 23 -15 110 -41 164 -49 l50 -8
-55 0 c-87 0 -88 -1 -66 -17 23 -17 13 -35 -20 -35 -13 0 -24 -1 -24 -3 0 -2
9 -23 21 -47 15 -31 23 -39 29 -30 11 18 38 -3 42 -33 2 -12 28 -40 62 -66 53
-40 67 -46 121 -49 58 -4 64 -2 100 29 l38 34 -16 -31 c-26 -51 -109 -80 -203
-70 -96 10 -80 -23 18 -39 l36 -6 -81 -77 c-99 -92 -105 -101 -83 -117 9 -7
16 -22 16 -34 0 -12 4 -30 10 -40 6 -13 5 -24 -5 -37 -14 -18 -16 -18 -26 -1
-13 23 -95 107 -104 107 -3 0 -3 -9 0 -20 3 -11 2 -20 -3 -20 -5 0 -10 -18
-10 -41 -1 -23 -2 -43 -4 -45 -2 -2 -16 3 -30 10 -23 12 -27 12 -32 0 -7 -19
35 -111 73 -158 17 -21 31 -49 31 -62 0 -12 5 -26 11 -29 6 -5 4 -11 -7 -19
-15 -12 -13 -17 21 -54 31 -35 34 -43 21 -48 -31 -12 -103 5 -196 46 -109 48
-130 47 -97 -4 12 -20 30 -38 40 -41 27 -10 41 -43 25 -62 -12 -15 -10 -16 19
-10 18 3 35 3 37 -2 3 -5 26 -18 51 -30 25 -12 45 -25 45 -30 0 -5 7 -17 16
-26 12 -11 14 -19 6 -27 -13 -13 -33 -1 -26 17 21 54 -189 -27 -226 -88 l-20
-32 0 56 c0 33 5 61 13 67 6 5 36 14 66 18 30 5 55 14 55 19 0 6 -23 18 -52
29 -29 10 -52 24 -52 31 0 6 -18 20 -40 30 -22 10 -42 25 -45 34 -2 9 -14 22
-26 29 -20 13 -21 12 -16 -10 3 -12 14 -45 24 -71 l18 -48 -38 -36 c-28 -25
-45 -33 -60 -29 -12 3 -33 6 -47 6 -24 0 -27 5 -39 70 -11 64 -11 75 7 128 11
31 23 94 27 139 6 63 13 88 29 107 11 13 29 33 39 45 9 12 31 24 48 28 19 3
34 14 39 28 9 23 55 65 73 65 5 0 -3 -10 -18 -22 -24 -18 -27 -26 -22 -61 3
-22 1 -49 -5 -61 -26 -50 -28 -56 -18 -56 22 0 25 2 22 16 -2 9 17 23 50 37
72 32 82 46 75 105 -3 26 -2 88 2 137 l8 90 -29 23 c-46 38 -52 54 -78 211 -6
38 -7 67 -2 70 5 3 12 34 15 69 5 59 4 62 -17 62 -14 0 -27 -9 -34 -22 -10
-22 -11 -22 -11 5 -1 38 44 80 81 75 26 -4 27 -3 38 66 22 133 40 197 80 280
62 132 193 296 264 333 35 18 278 61 354 62 42 1 81 -10 185 -51z m-86 -726
c34 -6 67 -13 73 -17 15 -9 2 -25 -19 -25 -11 0 -29 -9 -42 -20 l-24 -21 52 3
c28 2 49 -1 46 -5 -2 -4 -47 -6 -99 -3 -77 4 -100 9 -122 26 -15 12 -42 28
-59 35 -32 14 -40 25 -27 38 9 9 145 2 221 -11z m1230 -209 c4 -21 8 -108 8
-193 0 -134 -3 -159 -19 -182 -21 -33 -69 -40 -65 -10 2 9 0 29 -4 45 -16 59
-66 15 -79 -69 -9 -56 -51 -154 -67 -154 -4 0 -4 19 2 43 5 23 10 64 10 91 0
69 -27 91 -98 81 -28 -3 -54 -13 -58 -21 -5 -9 -16 -13 -28 -9 -27 9 -79 -16
-79 -37 0 -10 -1 -18 -2 -18 -21 1 -80 32 -102 53 -16 15 -34 26 -40 24 -15
-5 -9 -62 9 -96 l14 -28 -59 1 c-37 0 -61 5 -64 13 -3 7 -35 31 -71 53 -43 28
-67 50 -71 67 -12 46 3 156 28 214 l26 56 73 11 c41 7 128 19 194 27 66 8 199
28 295 44 241 40 237 40 247 -6z m-1309 -155 c28 -47 31 -59 22 -82 -15 -40
-55 -51 -96 -26 -25 16 -42 19 -68 15 -29 -6 -36 -3 -46 15 -9 17 -8 26 5 46
8 13 20 24 25 24 5 0 31 16 56 35 26 20 52 34 58 32 6 -2 26 -29 44 -59z
m-178 -103 c7 -8 18 -15 25 -15 21 0 46 -45 32 -59 -8 -8 -7 -11 4 -13 30 -3
35 -5 69 -26 28 -18 31 -22 15 -23 -11 -1 -26 -1 -32 0 -7 1 -13 -3 -13 -9 0
-5 -21 -10 -47 -10 -55 0 -88 -14 -57 -23 11 -3 55 -13 99 -22 44 -9 83 -21
87 -28 13 -21 -14 -37 -63 -37 -37 0 -49 -4 -49 -15 0 -8 -9 -15 -20 -15 -11
0 -20 -7 -20 -15 0 -18 35 -55 53 -55 6 0 18 -4 26 -9 22 -14 -5 -41 -40 -41
-16 0 -29 -5 -29 -11 0 -6 -11 -9 -24 -7 -13 1 -31 -3 -40 -11 -14 -12 -16
-12 -9 4 5 14 3 17 -10 12 -21 -8 -50 21 -44 44 3 11 -5 29 -19 44 -30 32 -54
107 -36 113 7 2 12 14 12 28 0 21 3 23 30 18 23 -5 30 -3 30 10 0 9 -3 16 -8
16 -4 0 -13 9 -20 20 -12 19 -9 22 25 37 26 11 33 18 21 20 -28 7 -27 55 2 75
32 21 35 21 50 3z m710 -384 c5 -11 26 -25 45 -31 31 -10 40 -9 70 9 19 11 37
17 39 12 7 -11 -38 -105 -76 -158 -33 -45 -122 -123 -140 -123 -6 0 -7 9 -3
23 4 12 7 64 5 115 -1 58 3 98 10 107 7 9 8 15 0 20 -5 3 -10 15 -10 26 0 26
46 26 60 0z m-1080 -597 l35 -35 -35 1 c-19 1 -40 2 -46 1 -17 -1 -27 -86 -14
-111 7 -12 9 -24 6 -27 -8 -8 -146 70 -140 79 3 4 -4 8 -14 8 -12 0 -22 9 -26
23 -8 32 -8 33 19 45 14 6 25 18 25 25 0 30 24 39 90 33 57 -5 68 -10 100 -42z
m1035 20 c24 -10 68 -102 61 -129 -4 -14 -18 -27 -35 -33 -25 -9 -34 -7 -55 9
-14 11 -28 28 -31 39 -11 34 -28 23 -21 -12 12 -65 11 -72 -7 -76 -12 -3 -19
5 -23 27 -4 17 -13 36 -21 43 -13 11 -14 4 -8 -56 8 -72 2 -86 -38 -86 -14 0
-16 5 -11 25 4 18 -2 36 -25 67 l-31 42 0 -62 c0 -52 -3 -62 -17 -62 -10 0
-27 12 -40 28 l-22 27 -1 -38 c0 -45 -21 -58 -52 -31 -17 15 -20 16 -16 3 8
-22 -7 -43 -25 -36 -8 3 -18 18 -21 34 -11 44 -34 73 -52 66 -16 -6 -16 -31 2
-90 6 -22 3 -23 -43 -23 -27 0 -52 3 -56 6 -3 3 -40 7 -82 9 -78 3 -100 10
-76 24 10 6 10 10 1 16 -6 4 -19 0 -29 -9 -20 -18 -37 -21 -45 -7 -5 8 78 43
109 47 6 1 28 9 50 19 22 9 51 18 65 19 14 0 28 5 31 10 9 11 71 33 120 41 31
5 39 3 52 -15 l15 -22 4 28 c4 35 31 43 59 18 18 -16 19 -16 19 10 0 19 7 30
25 38 22 10 29 8 55 -17 l30 -29 0 37 c0 32 4 39 28 48 15 6 35 15 44 20 10 5
23 9 29 9 6 0 17 7 25 15 17 16 33 19 59 9z"/>
<path d="M1625 2457 c-4 -20 -4 -41 0 -47 4 -6 -1 -20 -10 -30 -17 -19 -13
-40 8 -40 7 0 24 -6 39 -14 25 -13 28 -12 52 15 14 16 26 33 26 39 0 5 5 10
11 10 6 0 8 -9 4 -20 -4 -12 -2 -20 6 -20 8 0 10 11 6 34 -3 21 0 41 9 54 13
19 13 22 -4 31 -10 5 -46 13 -79 16 l-62 7 -6 -35z"/>
</g>
</svg>
