<svg width="270" height="216" viewBox="0 0 270 216" fill="none" xmlns="http://www.w3.org/2000/svg">
<rect width="270" height="171" transform="translate(0 45)" fill="white"/>
<g filter="url(#filter0_d_1_3297)">
<circle cx="135" cy="36" r="31" fill="white"/>
</g>
<path d="M128.614 31.457C129.608 30.3796 131.112 29.8335 133.083 29.8335H133.792V31.8303L133.222 31.9443C132.252 32.1384 131.577 32.5202 131.215 33.0805C131.027 33.3823 130.92 33.7279 130.905 34.0835H133.083C133.271 34.0835 133.451 34.1581 133.584 34.291C133.717 34.4238 133.792 34.604 133.792 34.7918V39.7502C133.792 40.5315 133.156 41.1668 132.375 41.1668H128.125C127.937 41.1668 127.757 41.0922 127.624 40.9594C127.491 40.8265 127.417 40.6464 127.417 40.4585V36.9168L127.419 34.8492C127.412 34.7706 127.278 32.9077 128.614 31.457ZM140.167 41.1668H135.917C135.729 41.1668 135.549 41.0922 135.416 40.9594C135.283 40.8265 135.208 40.6464 135.208 40.4585V36.9168L135.21 34.8492C135.204 34.7706 135.069 32.9077 136.406 31.457C137.4 30.3796 138.904 29.8335 140.875 29.8335H141.583V31.8303L141.014 31.9443C140.043 32.1384 139.368 32.5202 139.007 33.0805C138.819 33.3823 138.712 33.7279 138.697 34.0835H140.875C141.063 34.0835 141.243 34.1581 141.376 34.291C141.509 34.4238 141.583 34.604 141.583 34.7918V39.7502C141.583 40.5315 140.948 41.1668 140.167 41.1668Z" fill="#0A72AD"/>
<defs>
<filter id="filter0_d_1_3297" x="89" y="0" width="92" height="92" filterUnits="userSpaceOnUse" color-interpolation-filters="sRGB">
<feFlood flood-opacity="0" result="BackgroundImageFix"/>
<feColorMatrix in="SourceAlpha" type="matrix" values="0 0 0 0 0 0 0 0 0 0 0 0 0 0 0 0 0 0 127 0" result="hardAlpha"/>
<feOffset dy="10"/>
<feGaussianBlur stdDeviation="7.5"/>
<feColorMatrix type="matrix" values="0 0 0 0 0.137255 0 0 0 0 0.529412 0 0 0 0 0.752941 0 0 0 0.15 0"/>
<feBlend mode="normal" in2="BackgroundImageFix" result="effect1_dropShadow_1_3297"/>
<feBlend mode="normal" in="SourceGraphic" in2="effect1_dropShadow_1_3297" result="shape"/>
</filter>
</defs>
</svg>
