<svg width="24" height="25" viewBox="0 0 24 25" fill="none" xmlns="http://www.w3.org/2000/svg">
<g clip-path="url(#clip0_8_329)">
<path d="M8.25 3.27966H6C4.34315 3.27966 3 4.62281 3 6.27966V8.52966C3 10.1865 4.34315 11.5297 6 11.5297H8.25C9.90685 11.5297 11.25 10.1865 11.25 8.52966V6.27966C11.25 4.62281 9.90685 3.27966 8.25 3.27966Z" fill="#1428DA"/>
<path d="M18 3.27966H15.75C14.0931 3.27966 12.75 4.62281 12.75 6.27967V8.52967C12.75 10.1865 14.0931 11.5297 15.75 11.5297H18C19.6568 11.5297 21 10.1865 21 8.52967V6.27967C21 4.62281 19.6568 3.27966 18 3.27966Z" fill="#1428DA"/>
<path d="M8.25 13.0297H6C4.34315 13.0297 3 14.3728 3 16.0297V18.2797C3 19.9365 4.34315 21.2797 6 21.2797H8.25C9.90685 21.2797 11.25 19.9365 11.25 18.2797V16.0297C11.25 14.3728 9.90685 13.0297 8.25 13.0297Z" fill="#1428DA"/>
<path d="M18 13.0297H15.75C14.0931 13.0297 12.75 14.3728 12.75 16.0297V18.2797C12.75 19.9365 14.0931 21.2797 15.75 21.2797H18C19.6568 21.2797 21 19.9365 21 18.2797V16.0297C21 14.3728 19.6568 13.0297 18 13.0297Z" fill="#1428DA"/>
</g>
<defs>
<clipPath id="clip0_8_329">
<rect width="18" height="18" fill="white" transform="translate(3 3.27966)"/>
</clipPath>
</defs>
</svg>
