<svg width="18" height="18" viewBox="0 0 18 18" fill="none" xmlns="http://www.w3.org/2000/svg">
<g clip-path="url(#clip0_8_380)">
<path d="M17.9655 4.15637L11.652 10.4699C10.948 11.1721 9.99431 11.5664 9 11.5664C8.00569 11.5664 7.05197 11.1721 6.348 10.4699L0.0345 4.15637C0.024 4.27487 0 4.38212 0 4.49987V13.4999C0.00119089 14.4941 0.396661 15.4472 1.09966 16.1502C1.80267 16.8532 2.7558 17.2487 3.75 17.2499H14.25C15.2442 17.2487 16.1973 16.8532 16.9003 16.1502C17.6033 15.4472 17.9988 14.4941 18 13.4999V4.49987C18 4.38212 17.976 4.27487 17.9655 4.15637Z" fill="#858D9D"/>
<path d="M10.5916 9.40938L17.4421 2.55813C17.1103 2.00787 16.6422 1.55241 16.0831 1.23568C15.524 0.918945 14.8927 0.751633 14.2501 0.749878H3.75011C3.10752 0.751633 2.47623 0.918945 1.91713 1.23568C1.35802 1.55241 0.889964 2.00787 0.558105 2.55813L7.40861 9.40938C7.83129 9.83036 8.40355 10.0667 9.00011 10.0667C9.59667 10.0667 10.1689 9.83036 10.5916 9.40938Z" fill="#858D9D"/>
</g>
<defs>
<clipPath id="clip0_8_380">
<rect width="18" height="18" fill="white"/>
</clipPath>
</defs>
</svg>
