<svg width="18" height="18" viewBox="0 0 18 18" fill="none" xmlns="http://www.w3.org/2000/svg">
<g clip-path="url(#clip0_8_375)">
<path d="M5.56787 15.75C5.85862 16.4185 6.33829 16.9876 6.94799 17.3873C7.55768 17.787 8.27084 18 8.99987 18C9.7289 18 10.4421 17.787 11.0518 17.3873C11.6614 16.9876 12.1411 16.4185 12.4319 15.75H5.56787Z" fill="#858D9D"/>
<path d="M16.7939 9.41176L15.4919 5.11951C15.0749 3.61827 14.1684 2.29934 12.9163 1.37213C11.6641 0.44493 10.1381 -0.0374034 8.58054 0.00171693C7.02297 0.0408372 5.5231 0.599169 4.31908 1.58806C3.11507 2.57696 2.27591 3.93973 1.93486 5.46001L0.923856 9.61276C0.789481 10.1646 0.782201 10.7397 0.902564 11.2947C1.02293 11.8498 1.26779 12.3702 1.61867 12.8168C1.96956 13.2634 2.41729 13.6245 2.92809 13.8727C3.43889 14.121 3.99942 14.25 4.56736 14.25H13.2051C13.7907 14.25 14.3681 14.1129 14.8911 13.8497C15.4142 13.5864 15.8683 13.2044 16.2171 12.7341C16.566 12.2638 16.7998 11.7183 16.9 11.1414C17.0001 10.5645 16.9638 9.97211 16.7939 9.41176Z" fill="#858D9D"/>
</g>
<defs>
<clipPath id="clip0_8_375">
<rect width="18" height="18" fill="white"/>
</clipPath>
</defs>
</svg>
