<svg width="24" height="24" viewBox="0 0 24 24" fill="none" xmlns="http://www.w3.org/2000/svg">
<path d="M7.73047 2.99228C7.58121 2.99456 7.43603 3.04132 7.3135 3.12658C7.19098 3.21184 7.09667 3.33172 7.04267 3.47088C6.98866 3.61005 6.9774 3.76216 7.01034 3.90775C7.04327 4.05335 7.1189 4.1858 7.22754 4.28817L15.1729 12.0001L7.22754 19.712C7.15527 19.7802 7.09729 19.8621 7.05695 19.953C7.01661 20.0438 6.99472 20.1417 6.99256 20.2411C6.9904 20.3405 7.00801 20.4393 7.04436 20.5318C7.08072 20.6243 7.13509 20.7086 7.20432 20.7799C7.27356 20.8512 7.35627 20.9081 7.44766 20.9471C7.53904 20.9862 7.63728 21.0067 7.73667 21.0075C7.83605 21.0082 7.93459 20.9892 8.02657 20.9516C8.11855 20.9139 8.20214 20.8584 8.27246 20.7882L16.7725 12.5382C16.8444 12.4683 16.9017 12.3846 16.9408 12.2922C16.9798 12.1998 17 12.1004 17 12.0001C17 11.8997 16.9798 11.8004 16.9408 11.708C16.9017 11.6156 16.8444 11.5319 16.7725 11.462L8.27246 3.212C8.20144 3.14095 8.11687 3.08488 8.02376 3.04714C7.93066 3.00939 7.83092 2.99074 7.73047 2.99228Z" fill="white"/>
</svg>
