<svg width="25" height="25" viewBox="0 0 25 25" fill="none" xmlns="http://www.w3.org/2000/svg">
<path d="M19.7917 7.29183H11.4583V14.5835H3.125V5.2085H1.04167V20.8335H3.125V17.7085H21.875V20.8335H23.9583V11.4585C23.9583 10.3534 23.5193 9.29362 22.7379 8.51222C21.9565 7.73082 20.8967 7.29183 19.7917 7.29183ZM7.29167 13.5418C8.12047 13.5418 8.91532 13.2126 9.50138 12.6265C10.0874 12.0405 10.4167 11.2456 10.4167 10.4168C10.4167 9.58803 10.0874 8.79317 9.50138 8.20712C8.91532 7.62107 8.12047 7.29183 7.29167 7.29183C6.46287 7.29183 5.66801 7.62107 5.08196 8.20712C4.49591 8.79317 4.16667 9.58803 4.16667 10.4168C4.16667 11.2456 4.49591 12.0405 5.08196 12.6265C5.66801 13.2126 6.46287 13.5418 7.29167 13.5418Z" fill="#1A1A1A"/>
</svg>
