<svg width="71" height="70" viewBox="0 0 71 70" fill="none" xmlns="http://www.w3.org/2000/svg">
<circle cx="35.5" cy="35" r="35" fill="white"/>
<path d="M46 15C40.486 15 36 19.432 36 24.878C36 27.228 36.854 29.507 38.42 31.313C38.587 31.5 42.513 35.897 43.839 37.144C44.444 37.714 45.222 37.999 45.999 37.999C46.776 37.999 47.554 37.714 48.159 37.145C49.699 35.697 53.425 31.488 53.593 31.298C55.146 29.508 56 27.228 56 24.878C56 19.432 51.514 15 46 15ZM46 28C44.343 28 43 26.657 43 25C43 23.343 44.343 22 46 22C47.657 22 49 23.343 49 25C49 26.657 47.657 28 46 28ZM34.196 27C34.067 26.303 34 25.593 34 24.878C34 21.358 35.563 18.201 38.029 16.024C37.359 15.365 36.672 15 36 15C33.527 15 30.836 19.792 29.638 27H34.196ZM35.183 30H29.252C29.095 31.59 29 33.256 29 35C29 36.744 29.095 38.41 29.252 40H42.748C42.782 39.66 42.801 39.303 42.827 38.954C40.701 36.756 36.96 32.681 36.926 32.643C36.223 31.833 35.64 30.943 35.183 30ZM26 35C26 33.334 26.082 31.655 26.237 30H16.637C16.223 31.599 16 33.273 16 35C16 36.727 16.223 38.401 16.637 40H26.237C26.082 38.345 26 36.666 26 35ZM30.289 15.841C24.632 17.531 20.018 21.659 17.674 27H26.604C27.281 22.61 28.521 18.606 30.289 15.841ZM41.711 54.159C47.368 52.469 51.982 48.342 54.326 43H45.396C44.719 47.39 43.479 51.394 41.711 54.159ZM17.674 43C20.018 48.341 24.632 52.469 30.289 54.159C28.521 51.394 27.281 47.39 26.604 43H17.674ZM56 35C56 33.914 55.902 32.852 55.734 31.813C55.536 32.085 55.327 32.351 55.105 32.607C55.065 32.652 50.725 37.316 48.125 40H55.363C55.777 38.401 56 36.727 56 35ZM29.638 43C30.836 50.208 33.528 55 36 55C38.472 55 41.164 50.208 42.362 43H29.638Z" fill="#1428DA"/>
</svg>
