<svg width="24" height="24" viewBox="0 0 24 24" fill="none" xmlns="http://www.w3.org/2000/svg">
<path d="M17 2C14.243 2 12 4.216 12 6.939C12 8.114 12.427 9.2535 13.21 10.1565C13.2935 10.25 15.2565 12.4485 15.9195 13.072C16.222 13.357 16.611 13.4995 16.9995 13.4995C17.388 13.4995 17.777 13.357 18.0795 13.0725C18.8495 12.3485 20.7125 10.244 20.7965 10.149C21.573 9.254 22 8.114 22 6.939C22 4.216 19.757 2 17 2ZM17 8.5C16.1715 8.5 15.5 7.8285 15.5 7C15.5 6.1715 16.1715 5.5 17 5.5C17.8285 5.5 18.5 6.1715 18.5 7C18.5 7.8285 17.8285 8.5 17 8.5ZM11.098 8C11.0335 7.6515 11 7.2965 11 6.939C11 5.179 11.7815 3.6005 13.0145 2.512C12.6795 2.1825 12.336 2 12 2C10.7635 2 9.418 4.396 8.819 8H11.098ZM11.5915 9.5H8.626C8.5475 10.295 8.5 11.128 8.5 12C8.5 12.872 8.5475 13.705 8.626 14.5H15.374C15.391 14.33 15.4005 14.1515 15.4135 13.977C14.3505 12.878 12.48 10.8405 12.463 10.8215C12.1115 10.4165 11.82 9.9715 11.5915 9.5ZM7 12C7 11.167 7.041 10.3275 7.1185 9.5H2.3185C2.1115 10.2995 2 11.1365 2 12C2 12.8635 2.1115 13.7005 2.3185 14.5H7.1185C7.041 13.6725 7 12.833 7 12ZM9.1445 2.4205C6.316 3.2655 4.009 5.3295 2.837 8H7.302C7.6405 5.805 8.2605 3.803 9.1445 2.4205ZM14.8555 21.5795C17.684 20.7345 19.991 18.671 21.163 16H16.698C16.3595 18.195 15.7395 20.197 14.8555 21.5795ZM2.837 16C4.009 18.6705 6.316 20.7345 9.1445 21.5795C8.2605 20.197 7.6405 18.195 7.302 16H2.837ZM22 12C22 11.457 21.951 10.926 21.867 10.4065C21.768 10.5425 21.6635 10.6755 21.5525 10.8035C21.5325 10.826 19.3625 13.158 18.0625 14.5H21.6815C21.8885 13.7005 22 12.8635 22 12ZM8.819 16C9.418 19.604 10.764 22 12 22C13.236 22 14.582 19.604 15.181 16H8.819Z" fill="#C4C4C4"/>
</svg>
