<svg width="24" height="25" viewBox="0 0 24 25" fill="none" xmlns="http://www.w3.org/2000/svg">
<path d="M6.25 3.5C4.458 3.5 3 4.958 3 6.75V18.25C3 20.042 4.458 21.5 6.25 21.5H17.75C19.542 21.5 21 20.042 21 18.25V6.75C21 4.958 19.542 3.5 17.75 3.5H6.25ZM9.75 7.5H12.5C14.4295 7.5 16 9.07 16 11C16 12.93 14.4295 14.5 12.5 14.5H10.5V17.25C10.5 17.6645 10.164 18 9.75 18C9.336 18 9 17.6645 9 17.25V8.25C9 7.8355 9.336 7.5 9.75 7.5ZM10.5 9V13H12.5C13.603 13 14.5 12.103 14.5 11C14.5 9.897 13.603 9 12.5 9H10.5Z" fill="#1A1A1A"/>
</svg>
