<svg width="24" height="24" viewBox="0 0 24 24" fill="none" xmlns="http://www.w3.org/2000/svg">
<path d="M5.25 3.00008C4.01625 3.00008 3 4.01632 3 5.25008V18.7501C3 19.9926 4.0075 21.0001 5.25 21.0001H18.75C19.9925 21.0001 21 19.9926 21 18.7501V8.25007C21 7.00758 19.9925 6.00008 18.75 6.00008H5.25C4.836 6.00008 4.5 5.66408 4.5 5.25008C4.5 4.82683 4.82675 4.50007 5.25 4.50007H17.75C17.8494 4.50148 17.9481 4.48312 18.0403 4.44606C18.1325 4.409 18.2164 4.35398 18.2872 4.2842C18.358 4.21441 18.4142 4.13126 18.4526 4.03956C18.4909 3.94787 18.5107 3.84947 18.5107 3.75007C18.5107 3.65068 18.4909 3.55228 18.4526 3.46059C18.4142 3.36889 18.358 3.28574 18.2872 3.21595C18.2164 3.14617 18.1325 3.09115 18.0403 3.05409C17.9481 3.01703 17.8494 2.99867 17.75 3.00008H5.25ZM16.75 12.0001C17.4405 12.0001 18 12.5596 18 13.2501C18 13.9406 17.4405 14.5001 16.75 14.5001C16.0595 14.5001 15.5 13.9406 15.5 13.2501C15.5 12.5596 16.0595 12.0001 16.75 12.0001Z" fill="#C4C4C4"/>
</svg>
