<svg width="71" height="70" viewBox="0 0 71 70" fill="none" xmlns="http://www.w3.org/2000/svg">
<circle cx="35.5" cy="35" r="35" fill="#1428DA"/>
<path d="M51.5 54H42.5C41.119 54 40 52.881 40 51.5V42.5C40 41.395 39.105 40.5 38 40.5H34C32.895 40.5 32 41.395 32 42.5V51.5C32 52.881 30.881 54 29.5 54H20.5C19.119 54 18 52.881 18 51.5V32.413C18 30.114 19.054 27.942 20.859 26.52L35.071 15.321C35.616 14.893 36.384 14.893 36.928 15.321L51.142 26.52C52.947 27.942 54 30.113 54 32.411V51.5C54 52.881 52.881 54 51.5 54Z" fill="white"/>
</svg>
