<svg width="71" height="70" viewBox="0 0 71 70" fill="none" xmlns="http://www.w3.org/2000/svg">
<circle cx="35.5" cy="35" r="35" fill="#1428DA"/>
<path d="M22.5 16.9999C20.0325 16.9999 18 19.0324 18 21.4999V48.4999C18 50.9849 20.015 52.9999 22.5 52.9999H49.5C51.985 52.9999 54 50.9849 54 48.4999V27.4999C54 25.0149 51.985 22.9999 49.5 22.9999H22.5C21.672 22.9999 21 22.3279 21 21.4999C21 20.6534 21.6535 19.9999 22.5 19.9999H47.5C47.6988 20.0027 47.8961 19.966 48.0806 19.8919C48.265 19.8178 48.4329 19.7077 48.5745 19.5681C48.716 19.4286 48.8284 19.2623 48.9051 19.0789C48.9819 18.8955 49.0214 18.6987 49.0214 18.4999C49.0214 18.3011 48.9819 18.1043 48.9051 17.9209C48.8284 17.7375 48.716 17.5712 48.5745 17.4317C48.4329 17.2921 48.265 17.1821 48.0806 17.1079C47.8961 17.0338 47.6988 16.9971 47.5 16.9999H22.5ZM45.5 34.9999C46.881 34.9999 48 36.1189 48 37.4999C48 38.8809 46.881 39.9999 45.5 39.9999C44.119 39.9999 43 38.8809 43 37.4999C43 36.1189 44.119 34.9999 45.5 34.9999Z" fill="white"/>
</svg>
